<svg width="22" height="22" viewBox="0 0 22 22" fill="none" xmlns="http://www.w3.org/2000/svg">
<path d="M10.7422 15.082H11.2578C13.7456 15.082 15.7695 13.0581 15.7695 10.5703V4.55469C15.7695 2.04321 13.7456 0 11.2578 0H10.7422C8.25718 0 6.23494 2.03878 6.23047 4.54644V10.5703C6.23047 13.0581 8.25443 15.082 10.7422 15.082ZM10.7422 1.28906H11.2578C12.9056 1.28906 14.2676 2.54899 14.4571 4.16797H13.4062C13.0503 4.16797 12.7617 4.45655 12.7617 4.8125C12.7617 5.16845 13.0503 5.45703 13.4062 5.45703H14.4805V6.91797H12.7188C12.3628 6.91797 12.0742 7.20655 12.0742 7.5625C12.0742 7.91845 12.3628 8.20703 12.7188 8.20703H14.4805V9.66797H13.4062C13.0503 9.66797 12.7617 9.95655 12.7617 10.3125C12.7617 10.6685 13.0503 10.957 13.4062 10.957H14.4564C14.2647 12.5522 12.9039 13.793 11.2578 13.793H10.7422C9.09618 13.793 7.73532 12.5522 7.54355 10.957H8.59375C8.9497 10.957 9.23828 10.6685 9.23828 10.3125C9.23828 9.95655 8.9497 9.66797 8.59375 9.66797H7.51953V8.20703H9.28125C9.6372 8.20703 9.92578 7.91845 9.92578 7.5625C9.92578 7.20655 9.6372 6.91797 9.28125 6.91797H7.51953V5.45703H8.59375C8.9497 5.45703 9.23828 5.16845 9.23828 4.8125C9.23828 4.45655 8.9497 4.16797 8.59375 4.16797H7.54291C7.73236 2.54899 9.09442 1.28906 10.7422 1.28906Z" fill="#1F4B3F"/>
<path d="M18.5195 10.3125C18.5195 9.95655 18.231 9.66797 17.875 9.66797C17.519 9.66797 17.2305 9.95655 17.2305 10.3125C17.2305 13.748 14.4355 16.543 11 16.543C7.56452 16.543 4.76953 13.748 4.76953 10.3125C4.76953 9.95655 4.48095 9.66797 4.125 9.66797C3.76905 9.66797 3.48047 9.95655 3.48047 10.3125C3.48047 14.2416 6.50981 17.4761 10.3555 17.8041V20.7109H6.875C6.51905 20.7109 6.23047 20.9995 6.23047 21.3555C6.23047 21.7114 6.51905 22 6.875 22H15.125C15.481 22 15.7695 21.7114 15.7695 21.3555C15.7695 20.9995 15.481 20.7109 15.125 20.7109H11.6445V17.8041C15.4902 17.4761 18.5195 14.2416 18.5195 10.3125Z" fill="#1F4B3F"/>
</svg>
