<svg width="22" height="22" viewBox="0 0 22 22" fill="none" xmlns="http://www.w3.org/2000/svg">
<g clip-path="url(#clip0_147_16524)">
<path d="M19.5938 0H2.40625C1.10314 0 0.0429688 1.06017 0.0429688 2.36328V17.0156C0.0429688 18.3187 1.10314 19.3789 2.40625 19.3789H2.62109V21.3555C2.62109 21.7114 2.90967 22 3.26562 22C3.62158 22 3.91016 21.7114 3.91016 21.3555V10.3555H9.06641V11.6445H7.13281C6.77686 11.6445 6.48828 11.9331 6.48828 12.2891C6.48828 12.645 6.77686 12.9336 7.13281 12.9336H9.06641V14.2227H5.84375C5.4878 14.2227 5.19922 14.5112 5.19922 14.8672C5.19922 15.2231 5.4878 15.5117 5.84375 15.5117H9.06641V16.8008H7.13281C6.77686 16.8008 6.48828 17.0894 6.48828 17.4453C6.48828 17.8013 6.77686 18.0898 7.13281 18.0898H9.06641V19.3789H5.84375C5.4878 19.3789 5.19922 19.6675 5.19922 20.0234C5.19922 20.3794 5.4878 20.668 5.84375 20.668H9.06641V21.3555C9.06641 21.7114 9.35498 22 9.71094 22C10.0669 22 10.3555 21.7114 10.3555 21.3555V19.3789H12.9336V21.3555C12.9336 21.7114 13.2222 22 13.5781 22C13.9341 22 14.2227 21.7114 14.2227 21.3555V14.2227H15.5117V21.3555C15.5117 21.7114 15.8003 22 16.1562 22C16.5122 22 16.8008 21.7114 16.8008 21.3555V14.2227H18.0898V21.3555C18.0898 21.7114 18.3784 22 18.7344 22C19.0903 22 19.3789 21.7114 19.3789 21.3555V19.3789H19.5938C20.8969 19.3789 21.957 18.3187 21.957 17.0156V2.36328C21.957 1.06017 20.8969 0 19.5938 0ZM2.40625 1.28906H19.5938C20.1861 1.28906 20.668 1.77096 20.668 2.36328V5.19922H1.33203V2.36328C1.33203 1.77096 1.81393 1.28906 2.40625 1.28906ZM14.4035 12.9336L16.1562 10.7427L17.909 12.9336H14.4035ZM19.5938 18.0898H19.3789V12.9336C19.3789 12.7872 19.3291 12.6452 19.2377 12.531L16.6595 9.30832C16.4018 8.9861 15.9109 8.98593 15.653 9.30832L13.0748 12.531C12.9834 12.6452 12.9336 12.7872 12.9336 12.9336V18.0898H10.3555V9.71094C10.3555 9.35498 10.0669 9.06641 9.71094 9.06641H3.26562C2.90967 9.06641 2.62109 9.35498 2.62109 9.71094V18.0898H2.40625C1.81393 18.0898 1.33203 17.6079 1.33203 17.0156V6.48828H20.668V17.0156C20.668 17.6079 20.1861 18.0898 19.5938 18.0898Z" fill="#1F4B3F"/>
<path d="M16.1562 3.91016C16.5122 3.91016 16.8008 3.62159 16.8008 3.26562C16.8008 2.90966 16.5122 2.62109 16.1562 2.62109C15.8003 2.62109 15.5117 2.90966 15.5117 3.26562C15.5117 3.62159 15.8003 3.91016 16.1562 3.91016Z" fill="#1F4B3F"/>
<path d="M18.7344 3.91016C19.0903 3.91016 19.3789 3.62159 19.3789 3.26562C19.3789 2.90966 19.0903 2.62109 18.7344 2.62109C18.3784 2.62109 18.0898 2.90966 18.0898 3.26562C18.0898 3.62159 18.3784 3.91016 18.7344 3.91016Z" fill="#1F4B3F"/>
<path d="M13.5781 3.91016C13.9341 3.91016 14.2227 3.62159 14.2227 3.26562C14.2227 2.90966 13.9341 2.62109 13.5781 2.62109C13.2222 2.62109 12.9336 2.90966 12.9336 3.26562C12.9336 3.62159 13.2222 3.91016 13.5781 3.91016Z" fill="#1F4B3F"/>
</g>
<defs>
<clipPath id="clip0_147_16524">
<rect width="22" height="22" fill="white"/>
</clipPath>
</defs>
</svg>
