<svg width="22" height="22" viewBox="0 0 22 22" fill="none" xmlns="http://www.w3.org/2000/svg">
<g clip-path="url(#clip0_147_16591)">
<path d="M21.3555 7.77734H19.3789C19.3789 7.56888 19.3789 1.12827 19.3789 0.644531C19.3789 0.288528 19.0904 0 18.7344 0H14.8672C14.5112 0 14.2227 0.288528 14.2227 0.644531V1.28906H9.71094C9.47327 1.28906 9.2549 1.41998 9.14261 1.62946C9.03049 1.8391 9.04274 2.09338 9.17467 2.29111L10.2254 3.86719L9.17467 5.44327C9.04291 5.64099 9.03049 5.89528 9.14261 6.10492C9.2549 6.31439 9.47327 6.44531 9.71094 6.44531H14.8672C15.2232 6.44531 15.5117 6.15662 15.5117 5.80078V5.15625H18.0898V7.77734H16.1562C15.8004 7.77734 15.5117 8.06587 15.5117 8.42188V10.3555H11C10.644 10.3555 10.3555 10.644 10.3555 11V12.9336H5.84375C5.48775 12.9336 5.19922 13.2221 5.19922 13.5781V16.8008H0.644531C0.288528 16.8008 0 17.0893 0 17.4453V21.3555C0 21.7113 0.288528 22 0.644531 22H21.3555C21.4444 22 21.5292 21.9819 21.6064 21.9493C21.8377 21.8515 22 21.6225 22 21.3555V8.42188C22 8.06587 21.7115 7.77734 21.3555 7.77734ZM14.2227 5.15625H10.9152L11.5363 4.2247C11.6806 4.00818 11.6806 3.7262 11.5363 3.50967L10.9152 2.57812H14.2227V5.15625ZM15.5117 3.86719V1.28906H18.0898V3.86719H15.5117ZM16.8008 9.06641H20.7109V20.7109H16.8008V9.06641ZM11.6445 11.6445H15.5117V20.7109H11.6445V11.6445ZM6.48828 14.2227H10.3555V20.7109H6.48828V14.2227ZM1.28906 18.0898H5.19922V20.7109H1.28906V18.0898Z" fill="#1F4B3F"/>
</g>
<defs>
<clipPath id="clip0_147_16591">
<rect width="22" height="22" fill="white"/>
</clipPath>
</defs>
</svg>
