<svg width="22" height="22" viewBox="0 0 22 22" fill="none" xmlns="http://www.w3.org/2000/svg">
<g clip-path="url(#clip0_147_16579)">
<path d="M17.0325 10.228L10.2279 17.0325C9.8235 17.437 10.1098 18.1328 10.6836 18.1328H17.4883C17.8442 18.1328 18.1328 17.8442 18.1328 17.4883V10.6837C18.1328 10.1116 17.438 9.82243 17.0325 10.228ZM16.8437 16.8437H12.2397L16.8437 12.2398V16.8437Z" fill="#1F4B3F"/>
<path d="M20.8997 0.89187L0.891717 20.8998C0.487338 21.3042 0.773596 22.0001 1.34749 22.0001H21.3555C21.7115 22.0001 22 21.7115 22 21.3556V1.3476C22 0.773448 21.3039 0.487706 20.8997 0.89187ZM18.9922 20.711V20.0665C18.9922 19.7105 18.7036 19.422 18.3477 19.422C17.9917 19.422 17.7032 19.7105 17.7032 20.0665V20.711H15.9844V20.0665C15.9844 19.7105 15.6958 19.422 15.3399 19.422C14.9839 19.422 14.6953 19.7105 14.6953 20.0665V20.711H12.9766V20.0665C12.9766 19.7105 12.688 19.422 12.3321 19.422C11.9761 19.422 11.6875 19.7105 11.6875 20.0665V20.711H9.96878V20.0665C9.96878 19.7105 9.6802 19.422 9.32425 19.422C8.9683 19.422 8.67972 19.7105 8.67972 20.0665V20.711H6.96097V20.0665C6.96097 19.7105 6.67239 19.422 6.31644 19.422C5.96048 19.422 5.6719 19.7105 5.6719 20.0665V20.711H2.90351L20.711 2.90367V5.67197H20.0664C19.7105 5.67197 19.4219 5.96055 19.4219 6.3165C19.4219 6.67246 19.7105 6.96103 20.0664 6.96103H20.711V8.67978H20.0664C19.7105 8.67978 19.4219 8.96836 19.4219 9.32432C19.4219 9.68027 19.7105 9.96885 20.0664 9.96885H20.711V11.6876H20.0664C19.7105 11.6876 19.4219 11.9762 19.4219 12.3321C19.4219 12.6881 19.7105 12.9767 20.0664 12.9767H20.711V14.6954H20.0664C19.7105 14.6954 19.4219 14.984 19.4219 15.3399C19.4219 15.6959 19.7105 15.9845 20.0664 15.9845H20.711V17.7032H20.0664C19.7105 17.7032 19.4219 17.9918 19.4219 18.3478C19.4219 18.7037 19.7105 18.9923 20.0664 18.9923H20.711V20.711H18.9922Z" fill="#1F4B3F"/>
<path d="M2.92325 17.0134C26.2903 -6.35352 8.15268 11.784 15.3576 4.57915C15.3577 4.57902 15.3578 4.57894 15.3579 4.57881C15.4208 4.5159 15.465 4.45214 15.495 4.3888L17.14 0.920792C17.2568 0.674581 17.2061 0.381491 17.0134 0.188819C16.8208 -0.00389604 16.5277 -0.0545992 16.2815 0.0622329L12.8134 1.70725C12.7517 1.73655 12.688 1.77974 12.6339 1.83383L0.188719 14.279C-0.0628203 14.5305 -0.0629922 14.9388 0.188719 15.1905L2.01175 17.0135C2.26342 17.2652 2.67154 17.2652 2.92325 17.0134ZM13.4835 4.63024L4.72313 13.3905L3.81163 12.479L12.5718 3.719C12.7695 4.10585 13.091 4.42958 13.4835 4.63024ZM14.4613 3.56015C14.0048 3.59504 13.6071 3.19831 13.6421 2.7409L15.2006 2.00167L14.4613 3.56015ZM2.90013 13.3905L3.81163 14.302L2.46748 15.6462L1.55594 14.7347L2.90013 13.3905Z" fill="#1F4B3F"/>
</g>
<defs>
<clipPath id="clip0_147_16579">
<rect width="22" height="22" fill="white"/>
</clipPath>
</defs>
</svg>
