<svg width="133" height="40" viewBox="0 0 133 40" fill="none" xmlns="http://www.w3.org/2000/svg">
<path fill-rule="evenodd" clip-rule="evenodd" d="M0 15C0 6.71573 6.71573 0 15 0H25C33.2843 0 40 6.71573 40 15V25C40 33.2843 33.2843 40 25 40H15C6.71573 40 0 33.2843 0 25V15ZM18.7645 12.6393C17.7267 12.8229 16.7983 13.3242 16.0837 14.0389C15.5876 14.535 15.1945 15.1337 14.939 15.8011H20.5337V19.4076H14.9392H14.6065V24.6309V30.3248H11V17.6045C11 15.2166 11.9685 13.0541 13.5336 11.4889C14.9032 10.1195 16.7298 9.20691 18.7645 9.00008V12.6393ZM20.5339 9.00008V12.6242C22.9018 12.9897 24.7156 15.0368 24.7156 17.507C24.7156 18.8495 24.165 20.2195 23.2147 21.1698C22.3759 22.009 21.2423 22.5534 19.9825 22.6355V21.1765H16.3759V21.439V25.6117V30.3248H19.9825V26.2469C20.8214 26.215 21.6292 26.0633 22.3901 25.8092C22.3451 25.8243 22.2999 25.8394 22.2543 25.8539L24.8357 30.3248H29.0002L25.3906 24.0725C25.3584 24.101 25.326 24.1289 25.2935 24.1569C25.456 24.0168 25.6131 23.8712 25.7648 23.7198C27.33 22.1546 28.2983 19.9921 28.2983 17.6045C28.2983 15.2163 27.33 13.0538 25.7648 11.4889C24.3953 10.1195 22.5685 9.20691 20.5339 9.00008ZM25.2627 24.1833C25.2729 24.1745 25.2832 24.1657 25.2935 24.1569C25.2832 24.1657 25.273 24.1745 25.2627 24.1833Z" fill="white"/>
<path d="M51.608 28V11.2H62.552V13.816H54.848V18.304H61.04V20.848H54.848V28H51.608ZM64.8256 28V16.096H67.7056L68.0176 18.328C68.3056 17.816 68.6576 17.376 69.0736 17.008C69.5056 16.624 69.9936 16.328 70.5376 16.12C71.0976 15.912 71.7056 15.808 72.3616 15.808V19.24H71.4736C70.9776 19.24 70.5136 19.296 70.0816 19.408C69.6656 19.52 69.3056 19.704 69.0016 19.96C68.6976 20.216 68.4656 20.568 68.3056 21.016C68.1456 21.448 68.0656 22 68.0656 22.672V28H64.8256ZM80.1029 28.288C78.8869 28.288 77.8069 28.032 76.8629 27.52C75.9349 27.008 75.2069 26.288 74.6789 25.36C74.1509 24.432 73.8869 23.368 73.8869 22.168C73.8869 20.92 74.1429 19.824 74.6549 18.88C75.1829 17.92 75.9109 17.168 76.8389 16.624C77.7829 16.08 78.8789 15.808 80.1269 15.808C81.3109 15.808 82.3509 16.064 83.2469 16.576C84.1589 17.088 84.8629 17.792 85.3589 18.688C85.8709 19.568 86.1269 20.568 86.1269 21.688C86.1269 21.848 86.1269 22.032 86.1269 22.24C86.1269 22.432 86.1109 22.632 86.0789 22.84H76.2149V20.848H82.8389C82.7909 20.128 82.5109 19.544 81.9989 19.096C81.5029 18.648 80.8789 18.424 80.1269 18.424C79.5669 18.424 79.0549 18.552 78.5909 18.808C78.1269 19.048 77.7589 19.416 77.4869 19.912C77.2149 20.408 77.0789 21.032 77.0789 21.784V22.48C77.0789 23.12 77.2069 23.68 77.4629 24.16C77.7189 24.64 78.0709 25.008 78.5189 25.264C78.9829 25.52 79.5029 25.648 80.0789 25.648C80.6709 25.648 81.1669 25.52 81.5669 25.264C81.9669 24.992 82.2709 24.648 82.4789 24.232H85.7909C85.5509 24.984 85.1669 25.672 84.6389 26.296C84.1109 26.904 83.4629 27.392 82.6949 27.76C81.9269 28.112 81.0629 28.288 80.1029 28.288ZM94.5404 28.288C93.3244 28.288 92.2444 28.032 91.3004 27.52C90.3724 27.008 89.6444 26.288 89.1164 25.36C88.5884 24.432 88.3244 23.368 88.3244 22.168C88.3244 20.92 88.5804 19.824 89.0924 18.88C89.6204 17.92 90.3484 17.168 91.2764 16.624C92.2204 16.08 93.3164 15.808 94.5644 15.808C95.7484 15.808 96.7884 16.064 97.6844 16.576C98.5964 17.088 99.3004 17.792 99.7964 18.688C100.308 19.568 100.564 20.568 100.564 21.688C100.564 21.848 100.564 22.032 100.564 22.24C100.564 22.432 100.548 22.632 100.516 22.84H90.6524V20.848H97.2764C97.2284 20.128 96.9484 19.544 96.4364 19.096C95.9404 18.648 95.3164 18.424 94.5644 18.424C94.0044 18.424 93.4924 18.552 93.0284 18.808C92.5644 19.048 92.1964 19.416 91.9244 19.912C91.6524 20.408 91.5164 21.032 91.5164 21.784V22.48C91.5164 23.12 91.6444 23.68 91.9004 24.16C92.1564 24.64 92.5084 25.008 92.9564 25.264C93.4204 25.52 93.9404 25.648 94.5164 25.648C95.1084 25.648 95.6044 25.52 96.0044 25.264C96.4044 24.992 96.7084 24.648 96.9164 24.232H100.228C99.9884 24.984 99.6044 25.672 99.0764 26.296C98.5484 26.904 97.9004 27.392 97.1324 27.76C96.3644 28.112 95.5004 28.288 94.5404 28.288ZM103.242 28V16.096H106.482V28H103.242ZM104.85 14.368C104.274 14.368 103.794 14.2 103.41 13.864C103.042 13.512 102.858 13.072 102.858 12.544C102.858 12.016 103.042 11.584 103.41 11.248C103.794 10.896 104.274 10.72 104.85 10.72C105.442 10.72 105.922 10.896 106.29 11.248C106.674 11.584 106.866 12.016 106.866 12.544C106.866 13.072 106.674 13.512 106.29 13.864C105.922 14.2 105.442 14.368 104.85 14.368ZM115.397 28.288C114.261 28.288 113.229 28.024 112.301 27.496C111.389 26.968 110.661 26.232 110.117 25.288C109.573 24.344 109.301 23.264 109.301 22.048C109.301 20.816 109.573 19.736 110.117 18.808C110.661 17.864 111.397 17.128 112.325 16.6C113.253 16.072 114.285 15.808 115.421 15.808C116.573 15.808 117.613 16.072 118.541 16.6C119.469 17.128 120.197 17.864 120.725 18.808C121.269 19.736 121.541 20.816 121.541 22.048C121.541 23.28 121.269 24.368 120.725 25.312C120.181 26.24 119.445 26.968 118.517 27.496C117.605 28.024 116.565 28.288 115.397 28.288ZM115.421 25.48C115.933 25.48 116.397 25.352 116.813 25.096C117.245 24.84 117.589 24.456 117.845 23.944C118.117 23.432 118.253 22.8 118.253 22.048C118.253 21.28 118.125 20.648 117.869 20.152C117.613 19.64 117.269 19.256 116.837 19C116.421 18.744 115.957 18.616 115.445 18.616C114.933 18.616 114.461 18.744 114.029 19C113.597 19.256 113.253 19.64 112.997 20.152C112.741 20.648 112.613 21.28 112.613 22.048C112.613 22.8 112.741 23.432 112.997 23.944C113.253 24.456 113.589 24.84 114.005 25.096C114.437 25.352 114.909 25.48 115.421 25.48Z" fill="white"/>
<path d="M125.703 28.12C125.095 28.12 124.607 27.944 124.239 27.592C123.871 27.224 123.687 26.776 123.687 26.248C123.687 25.72 123.871 25.28 124.239 24.928C124.607 24.56 125.095 24.376 125.703 24.376C126.295 24.376 126.775 24.56 127.143 24.928C127.511 25.28 127.695 25.72 127.695 26.248C127.695 26.776 127.511 27.224 127.143 27.592C126.775 27.944 126.295 28.12 125.703 28.12Z" fill="#5BBB7B"/>
</svg>
