<svg width="22" height="22" viewBox="0 0 22 22" fill="none" xmlns="http://www.w3.org/2000/svg">
<g clip-path="url(#clip0_147_16533)">
<path d="M4.55469 14.2227H5.19922V17.2305C5.19922 17.5864 5.4878 17.875 5.84375 17.875C6.1997 17.875 6.48828 17.5864 6.48828 17.2305V14.5449L10.3555 16.1562V16.3711C10.3555 16.727 10.644 17.0156 11 17.0156C11.356 17.0156 11.6445 16.727 11.6445 16.3711V8.20703C11.6445 7.85108 11.356 7.5625 11 7.5625C10.644 7.5625 10.3555 7.85108 10.3555 8.20703V8.42188L5.71484 10.3555H4.55469C3.4885 10.3555 2.62109 11.2229 2.62109 12.2891C2.62109 13.3552 3.4885 14.2227 4.55469 14.2227ZM6.48828 11.4297L10.3555 9.81836V14.7598L6.48828 13.1484V11.4297ZM4.55469 11.6445H5.19922V12.9336H4.55469C4.19929 12.9336 3.91016 12.6445 3.91016 12.2891C3.91016 11.9337 4.19929 11.6445 4.55469 11.6445Z" fill="#1F4B3F"/>
<path d="M13.5781 10.3555H18.7344C19.0903 10.3555 19.3789 10.0669 19.3789 9.71094C19.3789 9.35498 19.0903 9.06641 18.7344 9.06641H13.5781C13.2222 9.06641 12.9336 9.35498 12.9336 9.71094C12.9336 10.0669 13.2222 10.3555 13.5781 10.3555Z" fill="#1F4B3F"/>
<path d="M13.5781 12.9336H18.7344C19.0903 12.9336 19.3789 12.645 19.3789 12.2891C19.3789 11.9331 19.0903 11.6445 18.7344 11.6445H13.5781C13.2222 11.6445 12.9336 11.9331 12.9336 12.2891C12.9336 12.645 13.2222 12.9336 13.5781 12.9336Z" fill="#1F4B3F"/>
<path d="M13.5781 15.5117H18.7344C19.0903 15.5117 19.3789 15.2231 19.3789 14.8672C19.3789 14.5112 19.0903 14.2227 18.7344 14.2227H13.5781C13.2222 14.2227 12.9336 14.5112 12.9336 14.8672C12.9336 15.2231 13.2222 15.5117 13.5781 15.5117Z" fill="#1F4B3F"/>
<path d="M19.6367 0H2.36328C1.06017 0 0 1.06017 0 2.36328V19.6367C0 20.9398 1.06017 22 2.36328 22H19.6367C20.9398 22 22 20.9398 22 19.6367V2.36328C22 1.06017 20.9398 0 19.6367 0ZM1.28906 2.36328C1.28906 1.77096 1.77096 1.28906 2.36328 1.28906H15.5547V3.4375H1.28906V2.36328ZM20.7109 19.6367C20.7109 20.229 20.229 20.7109 19.6367 20.7109H2.36328C1.77096 20.7109 1.28906 20.229 1.28906 19.6367V4.72656H20.7109V19.6367ZM20.7109 3.4375H16.8438V1.28906H19.6367C20.229 1.28906 20.7109 1.77096 20.7109 2.36328V3.4375Z" fill="#1F4B3F"/>
</g>
<defs>
<clipPath id="clip0_147_16533">
<rect width="22" height="22" fill="white"/>
</clipPath>
</defs>
</svg>
