<svg width="22" height="22" viewBox="0 0 22 22" fill="none" xmlns="http://www.w3.org/2000/svg">
<g clip-path="url(#clip0_147_16547)">
<path d="M18.7773 9.14462H15.5802C15.2242 9.14462 14.9357 9.43332 14.9357 9.78915C14.9357 9.87325 14.9523 9.95331 14.9815 10.027C15.0762 10.2652 15.3083 10.4337 15.5802 10.4337H18.7773C19.8435 10.4337 20.7109 11.3011 20.7109 12.3673V18.7773C20.7109 19.8435 19.8435 20.7109 18.7773 20.7109H11.491C10.4248 20.7109 9.55736 19.8435 9.55736 18.7773V11.7078C9.55736 11.3127 9.87878 10.9913 10.2739 10.9913H11.7261C12.832 10.9913 13.7317 10.0916 13.7317 8.98567V3.22266C13.7317 1.44566 12.286 0 10.509 0H3.22266C1.44566 0 0 1.44566 0 3.22266V10.0794C0 11.8564 1.44566 13.302 3.22266 13.302H8.2683V18.7773C8.2683 20.5543 9.71396 22 11.491 22H18.7773C20.5543 22 22 20.5543 22 18.7773V12.3673C22 10.5905 20.5543 9.14462 18.7773 9.14462ZM8.2683 12.013H3.22266C2.15649 12.013 1.28906 11.1455 1.28906 10.0794V3.22266C1.28906 2.15649 2.15649 1.28906 3.22266 1.28906H10.509C11.5752 1.28906 12.4426 2.15649 12.4426 3.22266V8.98567C12.4426 9.38078 12.1212 9.70221 11.7261 9.70221H10.2739C9.16795 9.70221 8.2683 10.6019 8.2683 11.7078V12.013Z" fill="#1F4B3F"/>
<path d="M12.1897 18.8971C14.2616 18.8971 15.9471 17.2116 15.9471 15.1398V14.9453H16.5346V18.2525C16.5346 18.6086 16.8231 18.8971 17.1791 18.8971C17.5351 18.8971 17.8236 18.6086 17.8236 18.2525V14.9453H18.0786C18.4346 14.9453 18.7231 14.6568 18.7231 14.3008C18.7231 13.9449 18.4346 13.6562 18.0786 13.6562H17.8236V12.0159C17.8236 11.6599 17.5351 11.3713 17.1791 11.3713C16.8231 11.3713 16.5346 11.6599 16.5346 12.0159V13.6562H13.448C13.092 13.6562 12.8035 13.9449 12.8035 14.3008C12.8035 14.6568 13.092 14.9453 13.448 14.9453H14.6581V15.1398C14.6581 16.5007 13.5508 17.608 12.1897 17.608C11.8337 17.608 11.5452 17.8967 11.5452 18.2525C11.5452 18.6086 11.8337 18.8971 12.1897 18.8971Z" fill="#1F4B3F"/>
<path d="M9.41973 8.10579L7.45912 3.48732C7.35807 3.24931 7.12443 3.09473 6.86578 3.09473C6.60729 3.09473 6.37365 3.24931 6.27261 3.48732L4.31199 8.10579C4.17285 8.43343 4.32575 8.81175 4.65339 8.9509C4.73547 8.98581 4.8209 9.00226 4.90483 9.00226C5.15576 9.00226 5.39427 8.85489 5.4985 8.6095L5.87901 7.71303H7.85272L8.23323 8.6095C8.37237 8.93713 8.7507 9.09004 9.07833 8.9509C9.40597 8.81175 9.55888 8.43343 9.41973 8.10579ZM6.42636 6.42397L6.86578 5.38852L7.30537 6.42397H6.42636Z" fill="#1F4B3F"/>
</g>
<defs>
<clipPath id="clip0_147_16547">
<rect width="22" height="22" fill="white"/>
</clipPath>
</defs>
</svg>
