<svg width="22" height="22" viewBox="0 0 22 22" fill="none" xmlns="http://www.w3.org/2000/svg">
<path d="M19.7942 4.88266L15.0282 0.185471C14.9075 0.0666351 14.745 0 14.5756 0H3.91016C2.84399 0 1.97656 0.867432 1.97656 1.93359V20.0664C1.97656 21.1326 2.84399 22 3.91016 22H18.0527C19.1189 22 19.9863 21.1326 19.9863 20.0664V5.34172C19.9862 5.16917 19.917 5.00385 19.7942 4.88266ZM15.2202 2.18469L17.7696 4.69719H15.2202V2.18469ZM3.91016 1.28906H13.9311V5.34172C13.9311 5.69772 14.2198 5.98625 14.5756 5.98625H18.6973V16.7026H3.26562V1.93359C3.26562 1.57826 3.55482 1.28906 3.91016 1.28906ZM18.0526 20.7109H3.91016C3.55482 20.7109 3.26562 20.4217 3.26562 20.0664V17.9917H18.6973V20.0664C18.6971 20.4217 18.4081 20.7109 18.0526 20.7109Z" fill="#1F4B3F"/>
<path d="M7.93242 14.8199C8.07677 14.8935 8.23521 14.9295 8.39282 14.9295C8.5887 14.9295 8.7834 14.8736 8.94856 14.764L14.1053 11.7564C14.1241 11.7455 14.1422 11.7336 14.1599 11.7208C14.3977 11.5478 14.5342 11.2849 14.534 10.9999C14.534 10.7151 14.3975 10.4524 14.1597 10.2794C14.1422 10.2666 14.1239 10.2547 14.1053 10.2438L8.94856 7.23612C8.65047 7.03823 8.25619 7.0154 7.93225 7.18023C7.62157 7.33851 7.42871 7.645 7.42871 7.98035V14.0198C7.42871 14.3552 7.62173 14.6618 7.93242 14.8199ZM8.71777 8.59383L12.8434 11.0001L8.71777 13.4065V8.59383Z" fill="#1F4B3F"/>
</svg>
